<svg width="546" height="98" viewBox="0 0 546 98" fill="none" xmlns="http://www.w3.org/2000/svg">
<g clip-path="url(#clip0_1_110)">
<path d="M35.4332 0L0 35.4657L62.4773 35.4657V98L97.9107 62.5344V0H35.4332Z" fill="black"/>
<path d="M133.346 62.532V0.000854492H178.594V10.0093H144.057V26.084H171.901V35.7361H144.057V52.4363H178.594V62.532H133.346V62.532Z" fill="black"/>
<path d="M195.849 62.532L183.531 17.4211H193.796L203.167 53.7746H209.416L218.787 17.4211H229.048L216.822 62.532H195.849V62.532Z" fill="black"/>
<path d="M234.061 39.9329C234.061 26.5349 244.322 16.2573 257.711 16.2573C271.275 16.2573 281.093 26.6222 281.093 39.7511V42.435H244.057C244.947 49.4904 250.749 54.9384 257.711 54.9384C267.082 54.9384 270.203 48.2394 270.203 48.2394H280.468C280.468 48.2394 276.006 63.6958 257.711 63.6958C244.322 63.6958 234.061 53.3309 234.061 39.9329V39.9329ZM270.65 35.4669C269.76 29.9244 264.851 25.0147 257.711 25.0147C250.571 25.0147 245.663 29.9244 244.413 35.4669H270.65Z" fill="black"/>
<path d="M289.864 62.5321V17.4212H299.682V24.302H299.951C299.951 24.302 302.985 16.7084 312.624 16.7084H317.98V26.3532H311.908C304.591 26.3532 299.682 31.2701 299.682 38.4128V62.5321H289.864V62.5321Z" fill="black"/>
<path d="M322.535 48.2394H332.796C332.796 48.2394 335.03 55.1202 344.132 55.1202C351.094 55.1202 353.503 52.7054 353.503 49.5777C353.503 41.2713 324.766 46.901 324.766 29.4807C324.766 22.5126 331.012 16.2573 342.791 16.2573C360.734 16.2573 363.143 30.3754 363.143 30.3754H353.056C353.056 30.3754 351.272 24.7456 342.791 24.7456C337.261 24.7456 334.761 27.2477 334.761 29.4807C334.761 37.6999 363.59 32.1574 363.59 49.5777C363.59 56.9022 356.893 63.6958 344.132 63.6958C325.656 63.6958 322.535 48.2394 322.535 48.2394Z" fill="black"/>
<path d="M369.418 39.9329C369.418 26.5349 379.679 16.2573 392.799 16.2573C411.541 16.2573 415.112 33.0521 415.112 33.0521H405.117C405.117 33.0521 402.439 25.0147 392.799 25.0147C385.481 25.0147 379.413 31.0009 379.413 39.9329C379.413 48.9522 385.659 54.9384 392.799 54.9384C402.617 54.9384 405.295 46.4501 405.295 46.4501H415.378C415.378 46.4501 411.988 63.6958 392.799 63.6958C379.679 63.6958 369.418 53.3309 369.418 39.9329V39.9329Z" fill="black"/>
<path d="M422.352 49.7596C422.352 41.9841 428.689 35.4669 440.382 35.4669H454.483V33.9467C454.483 28.317 450.912 24.7456 444.666 24.7456C436.185 24.7456 434.132 31.27 434.132 31.27H424.136C424.136 31.27 426.814 16.2573 444.666 16.2573C457.161 16.2573 464.301 23.2254 464.301 33.9467V62.532H454.483V55.833H454.214C454.214 55.833 449.84 63.6958 438.416 63.6958C428.155 63.6958 422.352 57.7969 422.352 49.7596V49.7596ZM454.483 42.6096H440.916C435.295 42.6096 432.348 45.5627 432.348 48.9522C432.348 52.4362 435.026 55.1202 441.094 55.1202C449.306 55.1202 454.483 49.7596 454.483 42.6096V42.6096Z" fill="black"/>
<path d="M475.034 62.532V0.000854492H484.852V53.7746H495.117V62.532H475.034Z" fill="black"/>
<path d="M498.968 39.9329C498.968 26.5349 509.229 16.2573 522.619 16.2573C536.182 16.2573 546 26.6222 546 39.7511V42.435H508.964C509.854 49.4904 515.657 54.9384 522.619 54.9384C531.989 54.9384 535.11 48.2394 535.11 48.2394H545.375C545.375 48.2394 540.913 63.6958 522.619 63.6958C509.229 63.6958 498.968 53.3309 498.968 39.9329V39.9329ZM535.557 35.4669C534.667 29.9244 529.758 25.0147 522.619 25.0147C515.479 25.0147 510.57 29.9244 509.32 35.4669H535.557Z" fill="black"/>
</g>
<defs>
<clipPath id="clip0_1_110">
<rect width="546" height="98" fill="white"/>
</clipPath>
</defs>
</svg>
